<svg width="20" height="21" viewBox="0 0 20 21" fill="none" xmlns="http://www.w3.org/2000/svg">
<g clip-path="url(#clip0_6_6)">
<path d="M0 10.5C0 8.67778 0.444444 7 1.33333 5.46667C2.22222 3.93333 3.43333 2.72222 4.96667 1.83333C6.5 0.944443 8.17778 0.499998 10 0.499998C11.8222 0.499998 13.5 0.944443 15.0333 1.83333C16.5667 2.72222 17.7778 3.93333 18.6667 5.46667C19.5556 7 20 8.67778 20 10.5C20 12.3222 19.5556 14 18.6667 15.5333C17.7778 17.0667 16.5667 18.2778 15.0333 19.1667C13.5 20.0556 11.8222 20.5 10 20.5C8.17778 20.5 6.5 20.0556 4.96667 19.1667C3.43333 18.2778 2.22222 17.0667 1.33333 15.5333C0.444444 14 0 12.3222 0 10.5ZM9.4 1.83333C8.51111 2.1 7.71111 2.87778 7 4.16667C6.77778 4.61111 6.57778 5.05555 6.4 5.5H9.4V1.83333ZM5.13333 5.5C5.31111 4.83333 5.57778 4.18889 5.93333 3.56667C6.15556 3.16667 6.4 2.78889 6.66667 2.43333C5.06667 3.05556 3.77778 4.07778 2.8 5.5H5.13333ZM4.4 9.9C4.44444 8.78889 4.57778 7.74444 4.8 6.76667H2.06667C1.62222 7.74444 1.35556 8.78889 1.26667 9.9H4.4ZM6.06667 6.76667C5.8 7.78889 5.66667 8.83333 5.66667 9.9H9.4V6.76667H6.06667ZM10.6 6.76667V9.9H14.3333C14.3333 8.83333 14.2 7.78889 13.9333 6.76667H10.6ZM5.66667 11.1C5.66667 12.1667 5.8 13.2111 6.06667 14.2333H9.4V11.1H5.66667ZM10.6 11.1V14.2333H13.9333C14.2 13.2556 14.3333 12.2111 14.3333 11.1H10.6ZM6.4 15.5C6.57778 15.9889 6.77778 16.4333 7 16.8333C7.71111 18.1222 8.51111 18.9 9.4 19.1667V15.5H6.4ZM6.66667 18.5667C6.4 18.2111 6.15556 17.8333 5.93333 17.4333C5.57778 16.8111 5.31111 16.1667 5.13333 15.5H2.8C3.77778 16.9222 5.06667 17.9444 6.66667 18.5667ZM4.8 14.2333C4.57778 13.2111 4.44444 12.1667 4.4 11.1H1.26667C1.35556 12.2111 1.62222 13.2556 2.06667 14.2333H4.8ZM13.3333 18.5667C14.9333 17.9444 16.2222 16.9222 17.2 15.5H14.8667C14.6889 16.1667 14.4222 16.8111 14.0667 17.4333C13.8444 17.8333 13.6 18.2111 13.3333 18.5667ZM10.6 15.5V19.1667C11.4889 18.9 12.2889 18.1222 13 16.8333C13.2222 16.4333 13.4222 15.9889 13.6 15.5H10.6ZM15.2 14.2333H17.9333C18.3778 13.2556 18.6444 12.2111 18.7333 11.1H15.6C15.5556 12.1667 15.4222 13.2111 15.2 14.2333ZM18.7333 9.9C18.6444 8.78889 18.3778 7.74444 17.9333 6.76667H15.2C15.4222 7.74444 15.5556 8.78889 15.6 9.9H18.7333ZM14.0667 3.56667C14.3778 4.14444 14.6444 4.78889 14.8667 5.5H17.2C16.2222 4.07778 14.9333 3.05556 13.3333 2.43333C13.6 2.78889 13.8444 3.16667 14.0667 3.56667ZM13.6 5.5C13.4222 5.05555 13.2222 4.61111 13 4.16667C12.2889 2.87778 11.4889 2.1 10.6 1.83333V5.5H13.6Z" fill="#E2AD64"/>
</g>
<defs>
<clipPath id="clip0_6_6">
<rect width="20" height="20" fill="white" transform="matrix(1 0 0 -1 0 20.5)"/>
</clipPath>
</defs>
</svg>
